<svg width="35" height="35" viewBox="0 0 35 35" fill="none" xmlns="http://www.w3.org/2000/svg">
<path d="M12.25 23.7825L17.5 18.5325L22.75 23.7825L23.7825 22.75L18.5325 17.5L23.7825 12.25L22.75 11.2175L17.5 16.4675L12.25 11.2175L11.2175 12.25L16.4675 17.5L11.2175 22.75L12.25 23.7825ZM17.5044 30.625C15.6902 30.625 13.984 30.2808 12.3856 29.5925C10.7883 28.9032 9.39847 27.9679 8.21625 26.7867C7.03403 25.6054 6.09826 24.2171 5.40896 22.6217C4.71965 21.0262 4.375 19.3205 4.375 17.5044C4.375 15.6883 4.71965 13.982 5.40896 12.3856C6.09729 10.7883 7.03111 9.39847 8.21042 8.21625C9.38972 7.03403 10.7785 6.09826 12.3769 5.40896C13.9752 4.71965 15.6815 4.375 17.4956 4.375C19.3098 4.375 21.016 4.71965 22.6144 5.40896C24.2117 6.09729 25.6015 7.0316 26.7837 8.21187C27.966 9.39215 28.9017 10.781 29.591 12.3783C30.2803 13.9757 30.625 15.6815 30.625 17.4956C30.625 19.3098 30.2808 21.016 29.5925 22.6144C28.9042 24.2127 27.9689 25.6025 26.7867 26.7837C25.6044 27.965 24.2161 28.9008 22.6217 29.591C21.0272 30.2813 19.3215 30.626 17.5044 30.625ZM17.5 29.1667C20.7569 29.1667 23.5156 28.0365 25.776 25.776C28.0365 23.5156 29.1667 20.7569 29.1667 17.5C29.1667 14.2431 28.0365 11.4844 25.776 9.22396C23.5156 6.96354 20.7569 5.83333 17.5 5.83333C14.2431 5.83333 11.4844 6.96354 9.22396 9.22396C6.96354 11.4844 5.83333 14.2431 5.83333 17.5C5.83333 20.7569 6.96354 23.5156 9.22396 25.776C11.4844 28.0365 14.2431 29.1667 17.5 29.1667Z" fill="#A60003"/>
</svg>
