<svg width="1440" height="332" viewBox="0 0 1440 332" fill="none" xmlns="http://www.w3.org/2000/svg">
<rect x="788" y="1" width="81" height="81" rx="9" fill="white" fill-opacity="0.5" stroke="white" stroke-width="2"/>
<rect x="658" y="250" width="81" height="81" rx="9" fill="#D9D9D9" fill-opacity="0.3" stroke="white" stroke-width="2"/>
<rect x="1007" y="167" width="81" height="81" rx="9" stroke="white" stroke-width="2"/>
<rect x="745" y="250" width="81" height="81" rx="9" fill="white" stroke="white" stroke-width="2"/>
<rect x="962" y="1" width="81" height="81" rx="9" stroke="white" stroke-width="2"/>
<rect x="832" y="250" width="81" height="81" rx="9" stroke="white" stroke-width="2"/>
<rect x="1181" y="84" width="81" height="81" rx="9" stroke="white" stroke-width="2"/>
<rect x="1094" y="1" width="81" height="81" rx="9" fill="white" fill-opacity="0.8" stroke="white" stroke-width="2"/>
<rect x="1181" y="167" width="81" height="81" rx="9" fill="#D9D9D9" fill-opacity="0.3" stroke="white" stroke-width="2"/>
<rect x="919" y="250" width="81" height="81" rx="9" stroke="white" stroke-width="2"/>
<rect x="1268" y="84" width="81" height="81" rx="9" stroke="white" stroke-width="2"/>
<rect x="1268" y="167" width="81" height="81" rx="9" fill="#D9D9D9" fill-opacity="0.3" stroke="white" stroke-width="2"/>
<rect x="1006" y="250" width="81" height="81" rx="9" fill="#D9D9D9" fill-opacity="0.3" stroke="white" stroke-width="2"/>
<rect x="1355" y="84" width="81" height="81" rx="9" fill="white" fill-opacity="0.5" stroke="white" stroke-width="2"/>
<rect x="1268" y="1" width="81" height="81" rx="9" fill="white" fill-opacity="0.5" stroke="white" stroke-width="2"/>
<rect x="1093" y="250" width="81" height="81" rx="9" stroke="white" stroke-width="2"/>
<rect x="1355" y="1" width="81" height="81" rx="9" fill="white" stroke="white" stroke-width="2"/>
<rect x="1180" y="250" width="81" height="81" rx="9" fill="white" stroke="white" stroke-width="2"/>
<rect x="1354" y="250" width="81" height="81" rx="9" fill="white" fill-opacity="0.5" stroke="white" stroke-width="2"/>
<rect x="604" y="331" width="81" height="81" rx="9" transform="rotate(-180 604 331)" stroke="white" stroke-width="2"/>
<rect x="517" y="165" width="81" height="81" rx="9" transform="rotate(-180 517 165)" fill="white" fill-opacity="0.5" stroke="white" stroke-width="2"/>
<rect x="779" y="82" width="81" height="81" rx="9" transform="rotate(-180 779 82)" fill="#D9D9D9" fill-opacity="0.3" stroke="white" stroke-width="2"/>
<rect x="430" y="248" width="81" height="81" rx="9" transform="rotate(-180 430 248)" fill="white" stroke="white" stroke-width="2"/>
<rect x="517" y="331" width="81" height="81" rx="9" transform="rotate(-180 517 331)" fill="white" stroke="white" stroke-width="2"/>
<rect x="430" y="165" width="81" height="81" rx="9" transform="rotate(-180 430 165)" stroke="white" stroke-width="2"/>
<rect x="692" y="82" width="81" height="81" rx="9" transform="rotate(-180 692 82)" fill="white" stroke="white" stroke-width="2"/>
<rect x="430" y="331" width="81" height="81" rx="9" transform="rotate(-180 430 331)" fill="white" fill-opacity="0.4" stroke="white" stroke-width="2"/>
<rect x="605" y="82" width="81" height="81" rx="9" transform="rotate(-180 605 82)" stroke="white" stroke-width="2"/>
<rect x="256" y="248" width="81" height="81" rx="9" transform="rotate(-180 256 248)" stroke="white" stroke-width="2"/>
<rect x="343" y="331" width="81" height="81" rx="9" transform="rotate(-180 343 331)" fill="white" fill-opacity="0.8" stroke="white" stroke-width="2"/>
<rect x="256" y="165" width="81" height="81" rx="9" transform="rotate(-180 256 165)" fill="#D9D9D9" fill-opacity="0.3" stroke="white" stroke-width="2"/>
<rect x="518" y="82" width="81" height="81" rx="9" transform="rotate(-180 518 82)" stroke="white" stroke-width="2"/>
<rect x="169" y="165" width="81" height="81" rx="9" transform="rotate(-180 169 165)" fill="#D9D9D9" fill-opacity="0.3" stroke="white" stroke-width="2"/>
<rect x="431" y="82" width="81" height="81" rx="9" transform="rotate(-180 431 82)" fill="#D9D9D9" fill-opacity="0.3" stroke="white" stroke-width="2"/>
<rect x="169" y="331" width="81" height="81" rx="9" transform="rotate(-180 169 331)" fill="white" fill-opacity="0.5" stroke="white" stroke-width="2"/>
<rect x="82" y="165" width="81" height="81" rx="9" transform="rotate(-180 82 165)" fill="white" stroke="white" stroke-width="2"/>
<rect x="344" y="82" width="81" height="81" rx="9" transform="rotate(-180 344 82)" stroke="white" stroke-width="2"/>
<rect x="82" y="331" width="81" height="81" rx="9" transform="rotate(-180 82 331)" fill="white" stroke="white" stroke-width="2"/>
<rect x="257" y="82" width="81" height="81" rx="9" transform="rotate(-180 257 82)" fill="white" stroke="white" stroke-width="2"/>
<rect x="83" y="82" width="81" height="81" rx="9" transform="rotate(-180 83 82)" fill="white" fill-opacity="0.5" stroke="white" stroke-width="2"/>
</svg>
