<svg width="35" height="35" viewBox="0 0 35 35" fill="none" xmlns="http://www.w3.org/2000/svg">
<path d="M17.5001 16.1875C13.5276 16.1875 12.7226 10.1675 12.7226 10.1675C12.2501 7.035 13.6851 3.5 17.4476 3.5C21.2276 3.5 22.6626 7.035 22.1901 10.1675C22.1901 10.1675 21.4726 16.1875 17.5001 16.1875ZM17.5001 20.685L22.2601 17.5C26.4426 17.5 30.1701 21.5775 30.1701 25.4275V29.785C30.1701 29.785 23.7826 31.7625 17.5001 31.7625C11.1126 31.7625 4.83008 29.785 4.83008 29.785V25.4275C4.83008 21.49 8.22508 17.5875 12.6526 17.5875L17.5001 20.685Z" fill="#F6C90E"/>
</svg>
