<svg width="14" height="14" viewBox="0 0 14 14" fill="none" xmlns="http://www.w3.org/2000/svg">
<path d="M11.1356 8.42388V11.0139C11.1354 11.3803 10.9898 11.7317 10.7307 11.9909C10.4715 12.25 10.1201 12.3956 9.75368 12.3958H2.98643C2.80429 12.3957 2.62396 12.3597 2.4558 12.2897C2.28763 12.2197 2.13496 12.1172 2.00654 11.988C1.87813 11.8588 1.77651 11.7055 1.70751 11.537C1.63852 11.3684 1.60352 11.1879 1.60452 11.0057V4.24605C1.60343 4.06419 1.63845 3.88393 1.70755 3.71571C1.77664 3.54749 1.87843 3.39465 2.00703 3.26606C2.13562 3.13747 2.28845 3.03567 2.45668 2.96658C2.6249 2.89749 2.80516 2.86247 2.98702 2.86355H5.57643" stroke="#F6C90E" stroke-linecap="round" stroke-linejoin="round"/>
<path d="M11.1361 5.24708L8.75314 2.86358M3.98731 9.21842V7.9555C3.98847 7.74725 4.07131 7.54717 4.21772 7.39958L9.77806 1.83925C9.85183 1.76465 9.93968 1.70542 10.0365 1.665C10.1333 1.62457 10.2372 1.60376 10.3421 1.60376C10.4471 1.60376 10.5509 1.62457 10.6478 1.665C10.7446 1.70542 10.8324 1.76465 10.9062 1.83925L12.161 3.094C12.2356 3.16778 12.2948 3.25563 12.3352 3.35245C12.3757 3.44928 12.3965 3.55316 12.3965 3.65808C12.3965 3.76301 12.3757 3.86689 12.3352 3.96372C12.2948 4.06054 12.2356 4.14839 12.161 4.22217L6.60064 9.7825C6.45278 9.92934 6.2531 10.0121 6.04472 10.0129H4.78181C4.67743 10.0131 4.57404 9.99263 4.47758 9.95275C4.38112 9.91288 4.29347 9.85436 4.21967 9.78056C4.14586 9.70675 4.08734 9.6191 4.04747 9.52264C4.0076 9.42618 3.98715 9.3228 3.98731 9.21842Z" stroke="#F6C90E" stroke-linecap="round" stroke-linejoin="round"/>
</svg>
