<svg width="16" height="16" viewBox="0 0 16 16" fill="none" xmlns="http://www.w3.org/2000/svg">
<path d="M2.66665 13.3333C2.29998 13.3333 1.9862 13.2029 1.72531 12.942C1.46442 12.6811 1.33376 12.3671 1.33331 12V3.99999C1.33331 3.63332 1.46398 3.31955 1.72531 3.05866C1.98665 2.79777 2.30042 2.6671 2.66665 2.66666H13.3333C13.7 2.66666 14.014 2.79732 14.2753 3.05866C14.5366 3.31999 14.6671 3.63377 14.6666 3.99999V12C14.6666 12.3667 14.5362 12.6807 14.2753 12.942C14.0144 13.2033 13.7004 13.3338 13.3333 13.3333H2.66665ZM7.99998 8.66666L13.3333 5.33332V3.99999L7.99998 7.33332L2.66665 3.99999V5.33332L7.99998 8.66666Z" fill="#626262"/>
</svg>
