<svg width="16" height="16" viewBox="0 0 16 16" fill="none" xmlns="http://www.w3.org/2000/svg">
<path d="M4.00002 14.6667C3.63335 14.6667 3.31958 14.5362 3.05869 14.2753C2.7978 14.0144 2.66713 13.7004 2.66669 13.3333V6.66666C2.66669 6.29999 2.79735 5.98621 3.05869 5.72532C3.32002 5.46443 3.6338 5.33377 4.00002 5.33332H4.66669V3.99999C4.66669 3.07777 4.9918 2.29177 5.64202 1.64199C6.29224 0.992213 7.07824 0.667101 8.00002 0.666657C8.9218 0.666213 9.70802 0.991324 10.3587 1.64199C11.0094 2.29266 11.3342 3.07866 11.3334 3.99999V5.33332H12C12.3667 5.33332 12.6807 5.46399 12.942 5.72532C13.2034 5.98666 13.3338 6.30043 13.3334 6.66666V13.3333C13.3334 13.7 13.2029 14.014 12.942 14.2753C12.6811 14.5367 12.3671 14.6671 12 14.6667H4.00002ZM8.00002 11.3333C8.36669 11.3333 8.68069 11.2029 8.94202 10.942C9.20335 10.6811 9.3338 10.3671 9.33335 9.99999C9.33291 9.63288 9.20247 9.3191 8.94202 9.05866C8.68158 8.79821 8.36758 8.66755 8.00002 8.66666C7.63246 8.66577 7.31869 8.79643 7.05869 9.05866C6.79869 9.32088 6.66802 9.63466 6.66669 9.99999C6.66535 10.3653 6.79602 10.6793 7.05869 10.942C7.32135 11.2047 7.63513 11.3351 8.00002 11.3333ZM6.00002 5.33332H10V3.99999C10 3.44443 9.80558 2.97221 9.41669 2.58332C9.0278 2.19443 8.55558 1.99999 8.00002 1.99999C7.44447 1.99999 6.97224 2.19443 6.58335 2.58332C6.19446 2.97221 6.00002 3.44443 6.00002 3.99999V5.33332Z" fill="#626262"/>
</svg>
