<svg width="35" height="35" viewBox="0 0 35 35" fill="none" xmlns="http://www.w3.org/2000/svg">
<path d="M17.4996 29.4C10.9196 29.4 5.59961 24.08 5.59961 17.5C5.59961 10.92 10.9196 5.60001 17.4996 5.60001C24.0796 5.60001 29.3996 10.92 29.3996 17.5C29.3996 24.08 24.0796 29.4 17.4996 29.4ZM17.4996 7.00001C11.6896 7.00001 6.99961 11.69 6.99961 17.5C6.99961 23.31 11.6896 28 17.4996 28C23.3096 28 27.9996 23.31 27.9996 17.5C27.9996 11.69 23.3096 7.00001 17.4996 7.00001Z" fill="#2A7113"/>
<path d="M16.0998 22.68L10.0098 16.59L10.9898 15.61L16.0998 20.72L24.0098 12.81L24.9898 13.79L16.0998 22.68Z" fill="#2A7113"/>
</svg>
